<svg id="visual" viewBox="0 0 1920 1080" width="1920" height="1080" xmlns="http://www.w3.org/2000/svg" xmlns:xlink="http://www.w3.org/1999/xlink" version="1.1"><path d="M0 185L175 185L175 120L349 120L349 66L524 66L524 195L698 195L698 77L873 77L873 217L1047 217L1047 185L1222 185L1222 77L1396 77L1396 217L1571 217L1571 185L1745 185L1745 217L1920 217L1920 206L1920 0L1920 0L1745 0L1745 0L1571 0L1571 0L1396 0L1396 0L1222 0L1222 0L1047 0L1047 0L873 0L873 0L698 0L698 0L524 0L524 0L349 0L349 0L175 0L175 0L0 0Z" fill="#fa7268"></path><path d="M0 390L175 390L175 325L349 325L349 271L524 271L524 336L698 336L698 249L873 249L873 401L1047 401L1047 433L1222 433L1222 249L1396 249L1396 476L1571 476L1571 282L1745 282L1745 411L1920 411L1920 498L1920 204L1920 215L1745 215L1745 183L1571 183L1571 215L1396 215L1396 75L1222 75L1222 183L1047 183L1047 215L873 215L873 75L698 75L698 193L524 193L524 64L349 64L349 118L175 118L175 183L0 183Z" fill="#ea5e66"></path><path d="M0 552L175 552L175 422L349 422L349 455L524 455L524 519L698 519L698 314L873 314L873 552L1047 552L1047 541L1222 541L1222 368L1396 368L1396 617L1571 617L1571 444L1745 444L1745 563L1920 563L1920 563L1920 496L1920 409L1745 409L1745 280L1571 280L1571 474L1396 474L1396 247L1222 247L1222 431L1047 431L1047 399L873 399L873 247L698 247L698 334L524 334L524 269L349 269L349 323L175 323L175 388L0 388Z" fill="#d84a64"></path><path d="M0 908L175 908L175 865L349 865L349 660L524 660L524 757L698 757L698 573L873 573L873 887L1047 887L1047 930L1222 930L1222 887L1396 887L1396 822L1571 822L1571 757L1745 757L1745 822L1920 822L1920 854L1920 561L1920 561L1745 561L1745 442L1571 442L1571 615L1396 615L1396 366L1222 366L1222 539L1047 539L1047 550L873 550L873 312L698 312L698 517L524 517L524 453L349 453L349 420L175 420L175 550L0 550Z" fill="#c53762"></path><path d="M0 1081L175 1081L175 1081L349 1081L349 1081L524 1081L524 1081L698 1081L698 1081L873 1081L873 1081L1047 1081L1047 1081L1222 1081L1222 1081L1396 1081L1396 1081L1571 1081L1571 1081L1745 1081L1745 1081L1920 1081L1920 1081L1920 852L1920 820L1745 820L1745 755L1571 755L1571 820L1396 820L1396 885L1222 885L1222 928L1047 928L1047 885L873 885L873 571L698 571L698 755L524 755L524 658L349 658L349 863L175 863L175 906L0 906Z" fill="#b0235f"></path></svg>