<svg width="16" height="16" viewBox="0 0 16 16" fill="none" xmlns="http://www.w3.org/2000/svg">
<g clip-path="url(#clip0_103_8)">
<rect width="16" height="16" rx="4" fill="#000"/>
<rect x="3" y="11" width="10" height="1" rx="0.5" fill="#00DDFF"/>
<rect x="4" y="11" width="9" height="1" rx="0.5" fill="#FFC000"/>
<rect x="6" y="11" width="7" height="1" rx="0.5" fill="#FF4080"/>
<path d="M5.81513 10.07C5.46979 10.07 5.15013 10.007 4.85613 9.881C4.56679 9.755 4.31246 9.58 4.09313 9.356C3.87846 9.12733 3.71046 8.86133 3.58913 8.558C3.47246 8.25 3.41413 7.914 3.41413 7.55C3.41413 7.186 3.47246 6.85233 3.58913 6.549C3.71046 6.241 3.87846 5.975 4.09313 5.751C4.31246 5.52233 4.56679 5.345 4.85613 5.219C5.15013 5.093 5.46979 5.03 5.81513 5.03C6.16046 5.03 6.47779 5.093 6.76713 5.219C7.06113 5.345 7.31546 5.52233 7.53013 5.751C7.74946 5.97967 7.91746 6.248 8.03413 6.556C8.15546 6.85933 8.21613 7.19067 8.21613 7.55C8.21613 7.90933 8.15546 8.243 8.03413 8.551C7.91746 8.85433 7.74946 9.12033 7.53013 9.349C7.31546 9.57767 7.06113 9.755 6.76713 9.881C6.47779 10.007 6.16046 10.07 5.81513 10.07ZM5.81513 9.335C6.05313 9.335 6.27013 9.29067 6.46613 9.202C6.66679 9.11333 6.83946 8.98967 6.98413 8.831C7.12879 8.66767 7.24079 8.47867 7.32013 8.264C7.40413 8.04467 7.44613 7.80667 7.44613 7.55C7.44613 7.29333 7.40413 7.05767 7.32013 6.843C7.24079 6.62367 7.12879 6.43467 6.98413 6.276C6.83946 6.11267 6.66679 5.98667 6.46613 5.898C6.27013 5.80933 6.05313 5.765 5.81513 5.765C5.57713 5.765 5.35779 5.80933 5.15713 5.898C4.96113 5.98667 4.78846 6.11033 4.63913 6.269C4.49446 6.42767 4.38246 6.61667 4.30313 6.836C4.22379 7.05067 4.18413 7.28867 4.18413 7.55C4.18413 7.89533 4.25413 8.20333 4.39413 8.474C4.53413 8.74 4.72546 8.95 4.96813 9.104C5.21546 9.258 5.49779 9.335 5.81513 9.335ZM10.7517 10.07C10.3504 10.07 9.99571 9.99067 9.68771 9.832C9.38438 9.67333 9.12304 9.43533 8.90371 9.118L9.42171 8.523C9.65038 8.84967 9.86971 9.076 10.0797 9.202C10.2897 9.328 10.5394 9.391 10.8287 9.391C11.006 9.391 11.167 9.363 11.3117 9.307C11.4564 9.251 11.5707 9.174 11.6547 9.076C11.7387 8.978 11.7807 8.866 11.7807 8.74C11.7807 8.656 11.7667 8.57667 11.7387 8.502C11.7107 8.42733 11.6664 8.35967 11.6057 8.299C11.5497 8.23833 11.475 8.18233 11.3817 8.131C11.293 8.07967 11.188 8.03533 11.0667 7.998C10.9454 7.956 10.8054 7.921 10.6467 7.893C10.3947 7.84167 10.1754 7.774 9.98871 7.69C9.80204 7.606 9.64571 7.501 9.51971 7.375C9.39371 7.249 9.30038 7.10667 9.23971 6.948C9.17904 6.78467 9.14871 6.60267 9.14871 6.402C9.14871 6.136 9.22338 5.90033 9.37271 5.695C9.52204 5.48967 9.72271 5.32867 9.97471 5.212C10.2314 5.09067 10.5184 5.03 10.8357 5.03C11.2137 5.03 11.5427 5.10467 11.8227 5.254C12.1074 5.39867 12.3314 5.611 12.4947 5.891L11.9627 6.416C11.8227 6.18733 11.6547 6.01233 11.4587 5.891C11.2674 5.76967 11.0527 5.709 10.8147 5.709C10.6327 5.709 10.474 5.737 10.3387 5.793C10.2034 5.849 10.096 5.92833 10.0167 6.031C9.94204 6.129 9.90471 6.24567 9.90471 6.381C9.90471 6.479 9.92338 6.57 9.96071 6.654C9.99804 6.73333 10.054 6.80567 10.1287 6.871C10.208 6.93167 10.313 6.98767 10.4437 7.039C10.5744 7.08567 10.7307 7.12767 10.9127 7.165C11.1694 7.221 11.398 7.29333 11.5987 7.382C11.7994 7.466 11.9697 7.56633 12.1097 7.683C12.2497 7.79967 12.3547 7.93033 12.4247 8.075C12.4994 8.21967 12.5367 8.376 12.5367 8.544C12.5367 8.85667 12.4644 9.12733 12.3197 9.356C12.175 9.58467 11.9697 9.762 11.7037 9.888C11.4377 10.0093 11.1204 10.07 10.7517 10.07Z" fill="white"/>
</g>
<defs>
<clipPath id="clip0_103_8">
<rect width="16" height="16" fill="white"/>
</clipPath>
</defs>
</svg>
