<svg width="16" height="16" viewBox="0 0 16 16" fill="none" xmlns="http://www.w3.org/2000/svg">
<g clip-path="url(#clip0_31_5)">
<path d="M4 0H12C14.6667 0 16 1.33333 16 4V12C16 14.6667 14.6667 16 12 16H4C1.33333 16 0 14.6667 0 12V4C0 1.33333 1.33333 0 4 0Z" fill="url(#paint0_linear_31_5)"/>
<path d="M3.06916 11V5.4H5.26116C5.66116 5.4 6.02116 5.46667 6.34116 5.6C6.66649 5.73333 6.94382 5.92533 7.17316 6.176C7.40249 6.42667 7.57849 6.72267 7.70116 7.064C7.82382 7.40533 7.88516 7.784 7.88516 8.2C7.88516 8.616 7.82382 8.99733 7.70116 9.344C7.57849 9.68533 7.40249 9.98133 7.17316 10.232C6.94916 10.4773 6.67449 10.6667 6.34916 10.8C6.02382 10.9333 5.66116 11 5.26116 11H3.06916ZM3.93316 10.256L3.90916 10.168H5.22116C5.50382 10.168 5.75449 10.1227 5.97316 10.032C6.19716 9.94133 6.38382 9.81333 6.53316 9.648C6.68782 9.47733 6.80516 9.26933 6.88516 9.024C6.96516 8.77867 7.00516 8.504 7.00516 8.2C7.00516 7.896 6.96516 7.624 6.88516 7.384C6.80516 7.13867 6.68782 6.93067 6.53316 6.76C6.37849 6.58933 6.19182 6.45867 5.97316 6.368C5.75449 6.27733 5.50382 6.232 5.22116 6.232H3.88516L3.93316 6.16V10.256Z" fill="white"/>
<path d="M9.05353 11V5.4H11.3895C11.7469 5.4 12.0482 5.45333 12.2935 5.56C12.5389 5.66667 12.7229 5.82667 12.8455 6.04C12.9735 6.248 13.0375 6.504 13.0375 6.808C13.0375 7.112 12.9522 7.37067 12.7815 7.584C12.6162 7.79733 12.3842 7.944 12.0855 8.024V7.864C12.3362 7.91733 12.5549 8.01333 12.7415 8.152C12.9282 8.28533 13.0722 8.45333 13.1735 8.656C13.2802 8.85867 13.3335 9.09067 13.3335 9.352C13.3335 9.61867 13.2909 9.856 13.2055 10.064C13.1255 10.2667 13.0029 10.4373 12.8375 10.576C12.6775 10.7147 12.4829 10.8213 12.2535 10.896C12.0242 10.9653 11.7629 11 11.4695 11H9.05353ZM9.91753 10.168H11.4215C11.7469 10.168 12.0002 10.096 12.1815 9.952C12.3629 9.808 12.4535 9.60267 12.4535 9.336C12.4535 9.17067 12.4082 9.02933 12.3175 8.912C12.2322 8.79467 12.1095 8.70667 11.9495 8.648C11.7895 8.584 11.6002 8.552 11.3815 8.552H9.91753V10.168ZM9.91753 7.72H11.3415C11.5015 7.72 11.6429 7.688 11.7655 7.624C11.8935 7.56 11.9922 7.472 12.0615 7.36C12.1362 7.248 12.1735 7.12 12.1735 6.976C12.1735 6.736 12.0935 6.552 11.9335 6.424C11.7735 6.296 11.5442 6.232 11.2455 6.232H9.91753V7.72Z" fill="#00A0E8"/>
</g>
<defs>
<linearGradient id="paint0_linear_31_5" x1="0" y1="0" x2="0" y2="16" gradientUnits="userSpaceOnUse">
<stop stop-color="#101214"/>
<stop offset="1" stop-color="#101214"/>
</linearGradient>
<clipPath id="clip0_31_5">
<rect width="16" height="16" fill="white"/>
</clipPath>
</defs>
</svg>
