<svg id="visual" viewBox="0 0 1920 1080" width="1920" height="1080" xmlns="http://www.w3.org/2000/svg" xmlns:xlink="http://www.w3.org/1999/xlink" version="1.1"><path d="M0 120L29.2 130.8C58.3 141.7 116.7 163.3 174.8 159.7C233 156 291 127 349.2 125.2C407.3 123.3 465.7 148.7 523.8 152.3C582 156 640 138 698.2 139.8C756.3 141.7 814.7 163.3 872.8 154.3C931 145.3 989 105.7 1047.2 102C1105.3 98.3 1163.7 130.7 1221.8 132.5C1280 134.3 1338 105.7 1396.2 96.7C1454.3 87.7 1512.7 98.3 1570.8 116.3C1629 134.3 1687 159.7 1745.2 156C1803.3 152.3 1861.7 119.7 1890.8 103.3L1920 87L1920 0L1890.8 0C1861.7 0 1803.3 0 1745.2 0C1687 0 1629 0 1570.8 0C1512.7 0 1454.3 0 1396.2 0C1338 0 1280 0 1221.8 0C1163.7 0 1105.3 0 1047.2 0C989 0 931 0 872.8 0C814.7 0 756.3 0 698.2 0C640 0 582 0 523.8 0C465.7 0 407.3 0 349.2 0C291 0 233 0 174.8 0C116.7 0 58.3 0 29.2 0L0 0Z" fill="#6198ff"></path><path d="M0 303L29.2 313.8C58.3 324.7 116.7 346.3 174.8 333.8C233 321.3 291 274.7 349.2 260.3C407.3 246 465.7 264 523.8 267.5C582 271 640 260 698.2 276.2C756.3 292.3 814.7 335.7 872.8 339.3C931 343 989 307 1047.2 301.7C1105.3 296.3 1163.7 321.7 1221.8 310.8C1280 300 1338 253 1396.2 247.5C1454.3 242 1512.7 278 1570.8 306.8C1629 335.7 1687 357.3 1745.2 350.2C1803.3 343 1861.7 307 1890.8 289L1920 271L1920 85L1890.8 101.3C1861.7 117.7 1803.3 150.3 1745.2 154C1687 157.7 1629 132.3 1570.8 114.3C1512.7 96.3 1454.3 85.7 1396.2 94.7C1338 103.7 1280 132.3 1221.8 130.5C1163.7 128.7 1105.3 96.3 1047.2 100C989 103.7 931 143.3 872.8 152.3C814.7 161.3 756.3 139.7 698.2 137.8C640 136 582 154 523.8 150.3C465.7 146.7 407.3 121.3 349.2 123.2C291 125 233 154 174.8 157.7C116.7 161.3 58.3 139.7 29.2 128.8L0 118Z" fill="#3c80ff"></path><path d="M0 617L29.2 626C58.3 635 116.7 653 174.8 658.3C233 663.7 291 656.3 349.2 658C407.3 659.7 465.7 670.3 523.8 632.5C582 594.7 640 508.3 698.2 490.3C756.3 472.3 814.7 522.7 872.8 555.2C931 587.7 989 602.3 1047.2 620.3C1105.3 638.3 1163.7 659.7 1221.8 630.8C1280 602 1338 523 1396.2 510.5C1454.3 498 1512.7 552 1570.8 580.8C1629 609.7 1687 613.3 1745.2 618.7C1803.3 624 1861.7 631 1890.8 634.5L1920 638L1920 269L1890.8 287C1861.7 305 1803.3 341 1745.2 348.2C1687 355.3 1629 333.7 1570.8 304.8C1512.7 276 1454.3 240 1396.2 245.5C1338 251 1280 298 1221.8 308.8C1163.7 319.7 1105.3 294.3 1047.2 299.7C989 305 931 341 872.8 337.3C814.7 333.7 756.3 290.3 698.2 274.2C640 258 582 269 523.8 265.5C465.7 262 407.3 244 349.2 258.3C291 272.7 233 319.3 174.8 331.8C116.7 344.3 58.3 322.7 29.2 311.8L0 301Z" fill="#0066ff"></path><path d="M0 800L29.2 823.5C58.3 847 116.7 894 174.8 921C233 948 291 955 349.2 951.3C407.3 947.7 465.7 933.3 523.8 928C582 922.7 640 926.3 698.2 935.3C756.3 944.3 814.7 958.7 872.8 944.2C931 929.7 989 886.3 1047.2 881C1105.3 875.7 1163.7 908.3 1221.8 915.7C1280 923 1338 905 1396.2 890.5C1454.3 876 1512.7 865 1570.8 877.5C1629 890 1687 926 1745.2 938.7C1803.3 951.3 1861.7 940.7 1890.8 935.3L1920 930L1920 636L1890.8 632.5C1861.7 629 1803.3 622 1745.2 616.7C1687 611.3 1629 607.7 1570.8 578.8C1512.7 550 1454.3 496 1396.2 508.5C1338 521 1280 600 1221.8 628.8C1163.7 657.7 1105.3 636.3 1047.2 618.3C989 600.3 931 585.7 872.8 553.2C814.7 520.7 756.3 470.3 698.2 488.3C640 506.3 582 592.7 523.8 630.5C465.7 668.3 407.3 657.7 349.2 656C291 654.3 233 661.7 174.8 656.3C116.7 651 58.3 633 29.2 624L0 615Z" fill="#0059dd"></path><path d="M0 1081L29.2 1081C58.3 1081 116.7 1081 174.8 1081C233 1081 291 1081 349.2 1081C407.3 1081 465.7 1081 523.8 1081C582 1081 640 1081 698.2 1081C756.3 1081 814.7 1081 872.8 1081C931 1081 989 1081 1047.2 1081C1105.3 1081 1163.7 1081 1221.8 1081C1280 1081 1338 1081 1396.2 1081C1454.3 1081 1512.7 1081 1570.8 1081C1629 1081 1687 1081 1745.2 1081C1803.3 1081 1861.7 1081 1890.8 1081L1920 1081L1920 928L1890.8 933.3C1861.7 938.7 1803.3 949.3 1745.2 936.7C1687 924 1629 888 1570.8 875.5C1512.7 863 1454.3 874 1396.2 888.5C1338 903 1280 921 1221.8 913.7C1163.7 906.3 1105.3 873.7 1047.2 879C989 884.3 931 927.7 872.8 942.2C814.7 956.7 756.3 942.3 698.2 933.3C640 924.3 582 920.7 523.8 926C465.7 931.3 407.3 945.7 349.2 949.3C291 953 233 946 174.8 919C116.7 892 58.3 845 29.2 821.5L0 798Z" fill="#004cbb"></path></svg>