<svg width="236" height="64" viewBox="0 0 236 64" fill="none" xmlns="http://www.w3.org/2000/svg">
<g clip-path="url(#clip0_103_2)">
<path d="M19.941 51.51C17.425 51.51 15.096 51.051 12.954 50.133C10.846 49.215 8.993 47.94 7.395 46.308C5.831 44.642 4.607 42.704 3.723 40.494C2.873 38.25 2.448 35.802 2.448 33.15C2.448 30.498 2.873 28.067 3.723 25.857C4.607 23.613 5.831 21.675 7.395 20.043C8.993 18.377 10.846 17.085 12.954 16.167C15.096 15.249 17.425 14.79 19.941 14.79C22.457 14.79 24.769 15.249 26.877 16.167C29.019 17.085 30.872 18.377 32.436 20.043C34.034 21.709 35.258 23.664 36.108 25.908C36.992 28.118 37.434 30.532 37.434 33.15C37.434 35.768 36.992 38.199 36.108 40.443C35.258 42.653 34.034 44.591 32.436 46.257C30.872 47.923 29.019 49.215 26.877 50.133C24.769 51.051 22.457 51.51 19.941 51.51ZM19.941 46.155C21.675 46.155 23.256 45.832 24.684 45.186C26.146 44.54 27.404 43.639 28.458 42.483C29.512 41.293 30.328 39.916 30.906 38.352C31.518 36.754 31.824 35.02 31.824 33.15C31.824 31.28 31.518 29.563 30.906 27.999C30.328 26.401 29.512 25.024 28.458 23.868C27.404 22.678 26.146 21.76 24.684 21.114C23.256 20.468 21.675 20.145 19.941 20.145C18.207 20.145 16.609 20.468 15.147 21.114C13.719 21.76 12.461 22.661 11.373 23.817C10.319 24.973 9.503 26.35 8.925 27.948C8.347 29.512 8.058 31.246 8.058 33.15C8.058 35.666 8.568 37.91 9.588 39.882C10.608 41.82 12.002 43.35 13.77 44.472C15.572 45.594 17.629 46.155 19.941 46.155ZM43.5656 51V24.225H48.8696V32.64L48.3596 30.6C48.7336 29.308 49.3626 28.135 50.2466 27.081C51.1646 26.027 52.2016 25.194 53.3576 24.582C54.5476 23.97 55.7716 23.664 57.0296 23.664C57.6076 23.664 58.1516 23.715 58.6616 23.817C59.2056 23.919 59.6306 24.038 59.9366 24.174L58.5596 29.886C58.1516 29.716 57.6926 29.58 57.1826 29.478C56.7066 29.342 56.2306 29.274 55.7546 29.274C54.8366 29.274 53.9526 29.461 53.1026 29.835C52.2866 30.175 51.5556 30.668 50.9096 31.314C50.2976 31.926 49.8046 32.657 49.4306 33.507C49.0566 34.323 48.8696 35.224 48.8696 36.21V51H43.5656ZM74.3624 51.51C71.8804 51.51 69.6534 50.898 67.6814 49.674C65.7434 48.45 64.1964 46.784 63.0404 44.676C61.9184 42.568 61.3574 40.205 61.3574 37.587C61.3574 34.969 61.9184 32.606 63.0404 30.498C64.1964 28.39 65.7434 26.724 67.6814 25.5C69.6534 24.276 71.8804 23.664 74.3624 23.664C76.7424 23.664 78.9014 24.157 80.8394 25.143C82.8114 26.095 84.3074 27.404 85.3274 29.07L82.4204 32.64C81.8764 31.858 81.1794 31.144 80.3294 30.498C79.4794 29.852 78.5784 29.342 77.6264 28.968C76.6744 28.594 75.7564 28.407 74.8724 28.407C73.2404 28.407 71.7784 28.815 70.4864 29.631C69.2284 30.413 68.2254 31.501 67.4774 32.895C66.7294 34.289 66.3554 35.853 66.3554 37.587C66.3554 39.321 66.7464 40.885 67.5284 42.279C68.3104 43.639 69.3474 44.727 70.6394 45.543C71.9314 46.359 73.3594 46.767 74.9234 46.767C75.8414 46.767 76.7254 46.614 77.5754 46.308C78.4594 46.002 79.3094 45.543 80.1254 44.931C80.9414 44.319 81.7064 43.571 82.4204 42.687L85.3274 46.257C84.2394 47.787 82.6754 49.045 80.6354 50.031C78.6294 51.017 76.5384 51.51 74.3624 51.51ZM90.2824 51V13.26H95.5354V29.733L94.6174 30.345C94.9574 29.155 95.6204 28.067 96.6064 27.081C97.5924 26.061 98.7654 25.245 100.125 24.633C101.485 23.987 102.879 23.664 104.307 23.664C106.347 23.664 108.047 24.072 109.407 24.888C110.767 25.67 111.787 26.877 112.467 28.509C113.147 30.141 113.487 32.198 113.487 34.68V51H108.234V35.037C108.234 33.507 108.03 32.249 107.622 31.263C107.214 30.243 106.585 29.512 105.735 29.07C104.885 28.594 103.831 28.39 102.573 28.458C101.553 28.458 100.618 28.628 99.7684 28.968C98.9184 29.274 98.1704 29.716 97.5244 30.294C96.9124 30.872 96.4194 31.552 96.0454 32.334C95.7054 33.082 95.5354 33.898 95.5354 34.782V51H92.9344C92.4924 51 92.0504 51 91.6084 51C91.1664 51 90.7244 51 90.2824 51ZM121.48 51V24.225H126.733V51H121.48ZM124.03 18.309C122.908 18.309 122.041 18.02 121.429 17.442C120.817 16.864 120.511 16.048 120.511 14.994C120.511 14.008 120.817 13.209 121.429 12.597C122.075 11.985 122.942 11.679 124.03 11.679C125.152 11.679 126.019 11.968 126.631 12.546C127.243 13.124 127.549 13.94 127.549 14.994C127.549 15.98 127.226 16.779 126.58 17.391C125.968 18.003 125.118 18.309 124.03 18.309ZM145.977 51.51C143.529 51.51 141.336 50.915 139.398 49.725C137.494 48.501 135.981 46.852 134.859 44.778C133.737 42.67 133.176 40.273 133.176 37.587C133.176 34.901 133.72 32.521 134.808 30.447C135.93 28.339 137.443 26.69 139.347 25.5C141.251 24.276 143.41 23.664 145.824 23.664C147.15 23.664 148.425 23.885 149.649 24.327C150.907 24.735 152.029 25.313 153.015 26.061C154.001 26.775 154.766 27.574 155.31 28.458C155.888 29.308 156.177 30.175 156.177 31.059L154.647 31.161V13.26H159.9V51H154.647V44.625H155.667C155.667 45.441 155.395 46.257 154.851 47.073C154.307 47.855 153.576 48.586 152.658 49.266C151.774 49.946 150.737 50.49 149.547 50.898C148.391 51.306 147.201 51.51 145.977 51.51ZM146.691 46.971C148.289 46.971 149.7 46.563 150.924 45.747C152.148 44.931 153.1 43.826 153.78 42.432C154.494 41.004 154.851 39.389 154.851 37.587C154.851 35.785 154.494 34.187 153.78 32.793C153.1 31.365 152.148 30.243 150.924 29.427C149.7 28.611 148.289 28.203 146.691 28.203C145.093 28.203 143.682 28.611 142.458 29.427C141.234 30.243 140.265 31.365 139.551 32.793C138.871 34.187 138.531 35.785 138.531 37.587C138.531 39.389 138.871 41.004 139.551 42.432C140.265 43.826 141.234 44.931 142.458 45.747C143.682 46.563 145.093 46.971 146.691 46.971ZM183.4 51.51C180.884 51.51 178.555 51.051 176.413 50.133C174.305 49.215 172.452 47.94 170.854 46.308C169.29 44.642 168.066 42.704 167.182 40.494C166.332 38.25 165.907 35.802 165.907 33.15C165.907 30.498 166.332 28.067 167.182 25.857C168.066 23.613 169.29 21.675 170.854 20.043C172.452 18.377 174.305 17.085 176.413 16.167C178.555 15.249 180.884 14.79 183.4 14.79C185.916 14.79 188.228 15.249 190.336 16.167C192.478 17.085 194.331 18.377 195.895 20.043C197.493 21.709 198.717 23.664 199.567 25.908C200.451 28.118 200.893 30.532 200.893 33.15C200.893 35.768 200.451 38.199 199.567 40.443C198.717 42.653 197.493 44.591 195.895 46.257C194.331 47.923 192.478 49.215 190.336 50.133C188.228 51.051 185.916 51.51 183.4 51.51ZM183.4 46.155C185.134 46.155 186.715 45.832 188.143 45.186C189.605 44.54 190.863 43.639 191.917 42.483C192.971 41.293 193.787 39.916 194.365 38.352C194.977 36.754 195.283 35.02 195.283 33.15C195.283 31.28 194.977 29.563 194.365 27.999C193.787 26.401 192.971 25.024 191.917 23.868C190.863 22.678 189.605 21.76 188.143 21.114C186.715 20.468 185.134 20.145 183.4 20.145C181.666 20.145 180.068 20.468 178.606 21.114C177.178 21.76 175.92 22.661 174.832 23.817C173.778 24.973 172.962 26.35 172.384 27.948C171.806 29.512 171.517 31.246 171.517 33.15C171.517 35.666 172.027 37.91 173.047 39.882C174.067 41.82 175.461 43.35 177.229 44.472C179.031 45.594 181.088 46.155 183.4 46.155ZM219.367 51.51C216.443 51.51 213.859 50.932 211.615 49.776C209.405 48.62 207.501 46.886 205.903 44.574L209.677 40.239C211.343 42.619 212.941 44.268 214.471 45.186C216.001 46.104 217.82 46.563 219.928 46.563C221.22 46.563 222.393 46.359 223.447 45.951C224.501 45.543 225.334 44.982 225.946 44.268C226.558 43.554 226.864 42.738 226.864 41.82C226.864 41.208 226.762 40.63 226.558 40.086C226.354 39.542 226.031 39.049 225.589 38.607C225.181 38.165 224.637 37.757 223.957 37.383C223.311 37.009 222.546 36.686 221.662 36.414C220.778 36.108 219.758 35.853 218.602 35.649C216.766 35.275 215.168 34.782 213.808 34.17C212.448 33.558 211.309 32.793 210.391 31.875C209.473 30.957 208.793 29.92 208.351 28.764C207.909 27.574 207.688 26.248 207.688 24.786C207.688 22.848 208.232 21.131 209.32 19.635C210.408 18.139 211.87 16.966 213.706 16.116C215.576 15.232 217.667 14.79 219.979 14.79C222.733 14.79 225.13 15.334 227.17 16.422C229.244 17.476 230.876 19.023 232.066 21.063L228.19 24.888C227.17 23.222 225.946 21.947 224.518 21.063C223.124 20.179 221.56 19.737 219.826 19.737C218.5 19.737 217.344 19.941 216.358 20.349C215.372 20.757 214.59 21.335 214.012 22.083C213.468 22.797 213.196 23.647 213.196 24.633C213.196 25.347 213.332 26.01 213.604 26.622C213.876 27.2 214.284 27.727 214.828 28.203C215.406 28.645 216.171 29.053 217.123 29.427C218.075 29.767 219.214 30.073 220.54 30.345C222.41 30.753 224.076 31.28 225.538 31.926C227 32.538 228.241 33.269 229.261 34.119C230.281 34.969 231.046 35.921 231.556 36.975C232.1 38.029 232.372 39.168 232.372 40.392C232.372 42.67 231.845 44.642 230.791 46.308C229.737 47.974 228.241 49.266 226.303 50.184C224.365 51.068 222.053 51.51 219.367 51.51Z" fill="white"/>
<rect x="164" y="58" width="72" height="6" rx="3" fill="#00DDFF"/>
<rect x="172" y="58" width="64" height="6" rx="3" fill="#FFC000"/>
<rect x="188" y="58" width="48" height="6" rx="3" fill="#FF4080"/>
</g>
<defs>
<clipPath id="clip0_103_2">
<rect width="236" height="64" rx="2" fill="white"/>
</clipPath>
</defs>
</svg>
