<svg width="61" height="16" viewBox="0 0 61 16" fill="none" xmlns="http://www.w3.org/2000/svg">
<g clip-path="url(#clip0_30_7)">
<path d="M1.176 13V4.6H4.464C5.064 4.6 5.604 4.7 6.084 4.9C6.572 5.1 6.988 5.388 7.332 5.764C7.676 6.14 7.94 6.584 8.124 7.096C8.308 7.608 8.4 8.176 8.4 8.8C8.4 9.424 8.308 9.996 8.124 10.516C7.94 11.028 7.676 11.472 7.332 11.848C6.996 12.216 6.584 12.5 6.096 12.7C5.608 12.9 5.064 13 4.464 13H1.176ZM2.472 11.884L2.436 11.752H4.404C4.828 11.752 5.204 11.684 5.532 11.548C5.868 11.412 6.148 11.22 6.372 10.972C6.604 10.716 6.78 10.404 6.9 10.036C7.02 9.668 7.08 9.256 7.08 8.8C7.08 8.344 7.02 7.936 6.9 7.576C6.78 7.208 6.604 6.896 6.372 6.64C6.14 6.384 5.86 6.188 5.532 6.052C5.204 5.916 4.828 5.848 4.404 5.848H2.4L2.472 5.74V11.884ZM10.0446 13V6.7H11.2806V13H10.0446ZM10.6446 5.308C10.3806 5.308 10.1766 5.24 10.0326 5.104C9.88856 4.968 9.81656 4.776 9.81656 4.528C9.81656 4.296 9.88856 4.108 10.0326 3.964C10.1846 3.82 10.3886 3.748 10.6446 3.748C10.9086 3.748 11.1126 3.816 11.2566 3.952C11.4006 4.088 11.4726 4.28 11.4726 4.528C11.4726 4.76 11.3966 4.948 11.2446 5.092C11.1006 5.236 10.9006 5.308 10.6446 5.308ZM16.0004 15.76C15.5524 15.76 15.1044 15.688 14.6564 15.544C14.2164 15.408 13.8604 15.228 13.5884 15.004L14.0444 14.044C14.2844 14.228 14.5804 14.376 14.9324 14.488C15.2924 14.6 15.6484 14.656 16.0004 14.656C16.4404 14.656 16.8084 14.584 17.1044 14.44C17.4004 14.296 17.6244 14.084 17.7764 13.804C17.9284 13.524 18.0044 13.176 18.0044 12.76V11.548L18.1364 11.632C18.0964 11.88 17.9644 12.12 17.7404 12.352C17.5244 12.576 17.2524 12.76 16.9244 12.904C16.5964 13.048 16.2604 13.12 15.9164 13.12C15.3164 13.12 14.7804 12.98 14.3084 12.7C13.8444 12.412 13.4764 12.024 13.2044 11.536C12.9324 11.04 12.7964 10.476 12.7964 9.844C12.7964 9.212 12.9284 8.652 13.1924 8.164C13.4644 7.668 13.8324 7.28 14.2964 7C14.7684 6.712 15.2964 6.568 15.8804 6.568C16.1204 6.568 16.3524 6.6 16.5764 6.664C16.8004 6.72 17.0084 6.804 17.2004 6.916C17.3924 7.02 17.5644 7.136 17.7164 7.264C17.8684 7.392 17.9924 7.528 18.0884 7.672C18.1844 7.816 18.2444 7.952 18.2684 8.08L18.0044 8.176V6.7H19.2404V12.616C19.2404 13.12 19.1644 13.564 19.0124 13.948C18.8684 14.34 18.6564 14.668 18.3764 14.932C18.0964 15.204 17.7564 15.408 17.3564 15.544C16.9564 15.688 16.5044 15.76 16.0004 15.76ZM16.0484 11.98C16.4404 11.98 16.7884 11.888 17.0924 11.704C17.3964 11.52 17.6324 11.268 17.8004 10.948C17.9684 10.628 18.0524 10.26 18.0524 9.844C18.0524 9.428 17.9644 9.06 17.7884 8.74C17.6204 8.412 17.3844 8.156 17.0804 7.972C16.7844 7.788 16.4404 7.696 16.0484 7.696C15.6644 7.696 15.3204 7.792 15.0164 7.984C14.7204 8.168 14.4844 8.424 14.3084 8.752C14.1404 9.072 14.0564 9.436 14.0564 9.844C14.0564 10.252 14.1404 10.62 14.3084 10.948C14.4844 11.268 14.7204 11.52 15.0164 11.704C15.3204 11.888 15.6644 11.98 16.0484 11.98ZM21.1774 13V6.7H22.4134V13H21.1774ZM21.7774 5.308C21.5134 5.308 21.3094 5.24 21.1654 5.104C21.0214 4.968 20.9494 4.776 20.9494 4.528C20.9494 4.296 21.0214 4.108 21.1654 3.964C21.3174 3.82 21.5214 3.748 21.7774 3.748C22.0414 3.748 22.2454 3.816 22.3894 3.952C22.5334 4.088 22.6054 4.28 22.6054 4.528C22.6054 4.76 22.5294 4.948 22.3774 5.092C22.2334 5.236 22.0334 5.308 21.7774 5.308ZM25.0932 13V5.092H26.3292V13H25.0932ZM23.7852 7.9V6.7H27.7932V7.9H23.7852Z" fill="#333333"/>
<path d="M29.2307 13V4.6H32.7347C33.2707 4.6 33.7227 4.68 34.0907 4.84C34.4587 5 34.7347 5.24 34.9187 5.56C35.1107 5.872 35.2067 6.256 35.2067 6.712C35.2067 7.168 35.0787 7.556 34.8227 7.876C34.5747 8.196 34.2267 8.416 33.7787 8.536V8.296C34.1547 8.376 34.4827 8.52 34.7627 8.728C35.0427 8.928 35.2587 9.18 35.4107 9.484C35.5707 9.788 35.6507 10.136 35.6507 10.528C35.6507 10.928 35.5867 11.284 35.4587 11.596C35.3387 11.9 35.1547 12.156 34.9067 12.364C34.6667 12.572 34.3747 12.732 34.0307 12.844C33.6867 12.948 33.2947 13 32.8547 13H29.2307ZM30.5267 11.752H32.7827C33.2707 11.752 33.6507 11.644 33.9227 11.428C34.1947 11.212 34.3307 10.904 34.3307 10.504C34.3307 10.256 34.2627 10.044 34.1267 9.868C33.9987 9.692 33.8147 9.56 33.5747 9.472C33.3347 9.376 33.0507 9.328 32.7227 9.328H30.5267V11.752ZM30.5267 8.08H32.6627C32.9027 8.08 33.1147 8.032 33.2987 7.936C33.4907 7.84 33.6387 7.708 33.7427 7.54C33.8547 7.372 33.9107 7.18 33.9107 6.964C33.9107 6.604 33.7907 6.328 33.5507 6.136C33.3107 5.944 32.9667 5.848 32.5187 5.848H30.5267V8.08ZM38.1427 15.76L39.4147 12.82L39.4267 13.804L36.2827 6.7H37.7227L39.6907 11.332C39.7307 11.412 39.7787 11.536 39.8347 11.704C39.8907 11.864 39.9387 12.024 39.9787 12.184L39.6667 12.256C39.7307 12.088 39.7907 11.92 39.8467 11.752C39.9107 11.584 39.9707 11.416 40.0267 11.248L41.6707 6.7H43.1347L40.5427 13L39.4747 15.76H38.1427ZM44.8393 13V5.092H46.0753V13H44.8393ZM43.5313 7.9V6.7H47.5393V7.9H43.5313ZM51.5462 13.12C50.8982 13.12 50.3222 12.984 49.8182 12.712C49.3222 12.432 48.9302 12.052 48.6422 11.572C48.3622 11.092 48.2222 10.54 48.2222 9.916C48.2222 9.42 48.3022 8.968 48.4622 8.56C48.6222 8.152 48.8422 7.8 49.1222 7.504C49.4102 7.2 49.7502 6.968 50.1422 6.808C50.5422 6.64 50.9742 6.556 51.4382 6.556C51.8462 6.556 52.2262 6.636 52.5782 6.796C52.9302 6.948 53.2342 7.16 53.4902 7.432C53.7542 7.704 53.9542 8.028 54.0902 8.404C54.2342 8.772 54.3022 9.176 54.2942 9.616L54.2822 10.144H49.1342L48.8582 9.16H53.2142L53.0342 9.364V9.076C53.0102 8.812 52.9222 8.576 52.7702 8.368C52.6182 8.16 52.4262 7.996 52.1942 7.876C51.9622 7.756 51.7102 7.696 51.4382 7.696C51.0062 7.696 50.6422 7.78 50.3462 7.948C50.0502 8.108 49.8262 8.348 49.6742 8.668C49.5222 8.98 49.4462 9.368 49.4462 9.832C49.4462 10.272 49.5382 10.656 49.7222 10.984C49.9062 11.304 50.1662 11.552 50.5022 11.728C50.8382 11.904 51.2262 11.992 51.6662 11.992C51.9782 11.992 52.2662 11.94 52.5302 11.836C52.8022 11.732 53.0942 11.544 53.4062 11.272L54.0302 12.148C53.8382 12.34 53.6022 12.508 53.3222 12.652C53.0502 12.796 52.7582 12.912 52.4462 13C52.1422 13.08 51.8422 13.12 51.5462 13.12Z" fill="#00A0E8"/>
<path d="M55.924 9V6.616H55.14V6.2H57.164V6.616H56.356V9H55.924ZM57.6967 9V6.2H58.1207L59.1407 7.86L58.9367 7.856L59.9687 6.2H60.3687V9H59.9367V7.852C59.9367 7.612 59.942 7.396 59.9527 7.204C59.966 7.012 59.9874 6.82133 60.0167 6.632L60.0727 6.78L59.1567 8.196H58.8927L58.0047 6.796L58.0487 6.632C58.078 6.81067 58.098 6.99467 58.1087 7.184C58.122 7.37067 58.1287 7.59333 58.1287 7.852V9H57.6967Z" fill="#333333"/>
</g>
<defs>
<clipPath id="clip0_30_7">
<rect width="61" height="16" fill="white"/>
</clipPath>
</defs>
</svg>
