<svg width="316" height="144" viewBox="0 0 316 144" fill="none" xmlns="http://www.w3.org/2000/svg">
<path d="M59.941 91.51C57.425 91.51 55.096 91.051 52.954 90.133C50.846 89.215 48.993 87.94 47.395 86.308C45.831 84.642 44.607 82.704 43.723 80.494C42.873 78.25 42.448 75.802 42.448 73.15C42.448 70.498 42.873 68.067 43.723 65.857C44.607 63.613 45.831 61.675 47.395 60.043C48.993 58.377 50.846 57.085 52.954 56.167C55.096 55.249 57.425 54.79 59.941 54.79C62.457 54.79 64.769 55.249 66.877 56.167C69.019 57.085 70.872 58.377 72.436 60.043C74.034 61.709 75.258 63.664 76.108 65.908C76.992 68.118 77.434 70.532 77.434 73.15C77.434 75.768 76.992 78.199 76.108 80.443C75.258 82.653 74.034 84.591 72.436 86.257C70.872 87.923 69.019 89.215 66.877 90.133C64.769 91.051 62.457 91.51 59.941 91.51ZM59.941 86.155C61.675 86.155 63.256 85.832 64.684 85.186C66.146 84.54 67.404 83.639 68.458 82.483C69.512 81.293 70.328 79.916 70.906 78.352C71.518 76.754 71.824 75.02 71.824 73.15C71.824 71.28 71.518 69.563 70.906 67.999C70.328 66.401 69.512 65.024 68.458 63.868C67.404 62.678 66.146 61.76 64.684 61.114C63.256 60.468 61.675 60.145 59.941 60.145C58.207 60.145 56.609 60.468 55.147 61.114C53.719 61.76 52.461 62.661 51.373 63.817C50.319 64.973 49.503 66.35 48.925 67.948C48.347 69.512 48.058 71.246 48.058 73.15C48.058 75.666 48.568 77.91 49.588 79.882C50.608 81.82 52.002 83.35 53.77 84.472C55.572 85.594 57.629 86.155 59.941 86.155ZM83.5656 91V64.225H88.8696V72.64L88.3596 70.6C88.7336 69.308 89.3626 68.135 90.2466 67.081C91.1646 66.027 92.2016 65.194 93.3576 64.582C94.5476 63.97 95.7716 63.664 97.0296 63.664C97.6076 63.664 98.1516 63.715 98.6616 63.817C99.2056 63.919 99.6306 64.038 99.9366 64.174L98.5596 69.886C98.1516 69.716 97.6926 69.58 97.1826 69.478C96.7066 69.342 96.2306 69.274 95.7546 69.274C94.8366 69.274 93.9526 69.461 93.1026 69.835C92.2866 70.175 91.5556 70.668 90.9096 71.314C90.2976 71.926 89.8046 72.657 89.4306 73.507C89.0566 74.323 88.8696 75.224 88.8696 76.21V91H83.5656ZM114.362 91.51C111.88 91.51 109.653 90.898 107.681 89.674C105.743 88.45 104.196 86.784 103.04 84.676C101.918 82.568 101.357 80.205 101.357 77.587C101.357 74.969 101.918 72.606 103.04 70.498C104.196 68.39 105.743 66.724 107.681 65.5C109.653 64.276 111.88 63.664 114.362 63.664C116.742 63.664 118.901 64.157 120.839 65.143C122.811 66.095 124.307 67.404 125.327 69.07L122.42 72.64C121.876 71.858 121.179 71.144 120.329 70.498C119.479 69.852 118.578 69.342 117.626 68.968C116.674 68.594 115.756 68.407 114.872 68.407C113.24 68.407 111.778 68.815 110.486 69.631C109.228 70.413 108.225 71.501 107.477 72.895C106.729 74.289 106.355 75.853 106.355 77.587C106.355 79.321 106.746 80.885 107.528 82.279C108.31 83.639 109.347 84.727 110.639 85.543C111.931 86.359 113.359 86.767 114.923 86.767C115.841 86.767 116.725 86.614 117.575 86.308C118.459 86.002 119.309 85.543 120.125 84.931C120.941 84.319 121.706 83.571 122.42 82.687L125.327 86.257C124.239 87.787 122.675 89.045 120.635 90.031C118.629 91.017 116.538 91.51 114.362 91.51ZM130.282 91V53.26H135.535V69.733L134.617 70.345C134.957 69.155 135.62 68.067 136.606 67.081C137.592 66.061 138.765 65.245 140.125 64.633C141.485 63.987 142.879 63.664 144.307 63.664C146.347 63.664 148.047 64.072 149.407 64.888C150.767 65.67 151.787 66.877 152.467 68.509C153.147 70.141 153.487 72.198 153.487 74.68V91H148.234V75.037C148.234 73.507 148.03 72.249 147.622 71.263C147.214 70.243 146.585 69.512 145.735 69.07C144.885 68.594 143.831 68.39 142.573 68.458C141.553 68.458 140.618 68.628 139.768 68.968C138.918 69.274 138.17 69.716 137.524 70.294C136.912 70.872 136.419 71.552 136.045 72.334C135.705 73.082 135.535 73.898 135.535 74.782V91H132.934C132.492 91 132.05 91 131.608 91C131.166 91 130.724 91 130.282 91ZM161.48 91V64.225H166.733V91H161.48ZM164.03 58.309C162.908 58.309 162.041 58.02 161.429 57.442C160.817 56.864 160.511 56.048 160.511 54.994C160.511 54.008 160.817 53.209 161.429 52.597C162.075 51.985 162.942 51.679 164.03 51.679C165.152 51.679 166.019 51.968 166.631 52.546C167.243 53.124 167.549 53.94 167.549 54.994C167.549 55.98 167.226 56.779 166.58 57.391C165.968 58.003 165.118 58.309 164.03 58.309ZM185.977 91.51C183.529 91.51 181.336 90.915 179.398 89.725C177.494 88.501 175.981 86.852 174.859 84.778C173.737 82.67 173.176 80.273 173.176 77.587C173.176 74.901 173.72 72.521 174.808 70.447C175.93 68.339 177.443 66.69 179.347 65.5C181.251 64.276 183.41 63.664 185.824 63.664C187.15 63.664 188.425 63.885 189.649 64.327C190.907 64.735 192.029 65.313 193.015 66.061C194.001 66.775 194.766 67.574 195.31 68.458C195.888 69.308 196.177 70.175 196.177 71.059L194.647 71.161V53.26H199.9V91H194.647V84.625H195.667C195.667 85.441 195.395 86.257 194.851 87.073C194.307 87.855 193.576 88.586 192.658 89.266C191.774 89.946 190.737 90.49 189.547 90.898C188.391 91.306 187.201 91.51 185.977 91.51ZM186.691 86.971C188.289 86.971 189.7 86.563 190.924 85.747C192.148 84.931 193.1 83.826 193.78 82.432C194.494 81.004 194.851 79.389 194.851 77.587C194.851 75.785 194.494 74.187 193.78 72.793C193.1 71.365 192.148 70.243 190.924 69.427C189.7 68.611 188.289 68.203 186.691 68.203C185.093 68.203 183.682 68.611 182.458 69.427C181.234 70.243 180.265 71.365 179.551 72.793C178.871 74.187 178.531 75.785 178.531 77.587C178.531 79.389 178.871 81.004 179.551 82.432C180.265 83.826 181.234 84.931 182.458 85.747C183.682 86.563 185.093 86.971 186.691 86.971ZM223.4 91.51C220.884 91.51 218.555 91.051 216.413 90.133C214.305 89.215 212.452 87.94 210.854 86.308C209.29 84.642 208.066 82.704 207.182 80.494C206.332 78.25 205.907 75.802 205.907 73.15C205.907 70.498 206.332 68.067 207.182 65.857C208.066 63.613 209.29 61.675 210.854 60.043C212.452 58.377 214.305 57.085 216.413 56.167C218.555 55.249 220.884 54.79 223.4 54.79C225.916 54.79 228.228 55.249 230.336 56.167C232.478 57.085 234.331 58.377 235.895 60.043C237.493 61.709 238.717 63.664 239.567 65.908C240.451 68.118 240.893 70.532 240.893 73.15C240.893 75.768 240.451 78.199 239.567 80.443C238.717 82.653 237.493 84.591 235.895 86.257C234.331 87.923 232.478 89.215 230.336 90.133C228.228 91.051 225.916 91.51 223.4 91.51ZM223.4 86.155C225.134 86.155 226.715 85.832 228.143 85.186C229.605 84.54 230.863 83.639 231.917 82.483C232.971 81.293 233.787 79.916 234.365 78.352C234.977 76.754 235.283 75.02 235.283 73.15C235.283 71.28 234.977 69.563 234.365 67.999C233.787 66.401 232.971 65.024 231.917 63.868C230.863 62.678 229.605 61.76 228.143 61.114C226.715 60.468 225.134 60.145 223.4 60.145C221.666 60.145 220.068 60.468 218.606 61.114C217.178 61.76 215.92 62.661 214.832 63.817C213.778 64.973 212.962 66.35 212.384 67.948C211.806 69.512 211.517 71.246 211.517 73.15C211.517 75.666 212.027 77.91 213.047 79.882C214.067 81.82 215.461 83.35 217.229 84.472C219.031 85.594 221.088 86.155 223.4 86.155ZM259.367 91.51C256.443 91.51 253.859 90.932 251.615 89.776C249.405 88.62 247.501 86.886 245.903 84.574L249.677 80.239C251.343 82.619 252.941 84.268 254.471 85.186C256.001 86.104 257.82 86.563 259.928 86.563C261.22 86.563 262.393 86.359 263.447 85.951C264.501 85.543 265.334 84.982 265.946 84.268C266.558 83.554 266.864 82.738 266.864 81.82C266.864 81.208 266.762 80.63 266.558 80.086C266.354 79.542 266.031 79.049 265.589 78.607C265.181 78.165 264.637 77.757 263.957 77.383C263.311 77.009 262.546 76.686 261.662 76.414C260.778 76.108 259.758 75.853 258.602 75.649C256.766 75.275 255.168 74.782 253.808 74.17C252.448 73.558 251.309 72.793 250.391 71.875C249.473 70.957 248.793 69.92 248.351 68.764C247.909 67.574 247.688 66.248 247.688 64.786C247.688 62.848 248.232 61.131 249.32 59.635C250.408 58.139 251.87 56.966 253.706 56.116C255.576 55.232 257.667 54.79 259.979 54.79C262.733 54.79 265.13 55.334 267.17 56.422C269.244 57.476 270.876 59.023 272.066 61.063L268.19 64.888C267.17 63.222 265.946 61.947 264.518 61.063C263.124 60.179 261.56 59.737 259.826 59.737C258.5 59.737 257.344 59.941 256.358 60.349C255.372 60.757 254.59 61.335 254.012 62.083C253.468 62.797 253.196 63.647 253.196 64.633C253.196 65.347 253.332 66.01 253.604 66.622C253.876 67.2 254.284 67.727 254.828 68.203C255.406 68.645 256.171 69.053 257.123 69.427C258.075 69.767 259.214 70.073 260.54 70.345C262.41 70.753 264.076 71.28 265.538 71.926C267 72.538 268.241 73.269 269.261 74.119C270.281 74.969 271.046 75.921 271.556 76.975C272.1 78.029 272.372 79.168 272.372 80.392C272.372 82.67 271.845 84.642 270.791 86.308C269.737 87.974 268.241 89.266 266.303 90.184C264.365 91.068 262.053 91.51 259.367 91.51Z" fill="#333"/>
<rect x="204" y="98" width="72" height="6" rx="3" fill="#00DDFF"/>
<rect x="212" y="98" width="64" height="6" rx="3" fill="#FFC000"/>
<rect x="228" y="98" width="48" height="6" rx="3" fill="#FF4080"/>
<rect x="40" y="8" width="30.4375" height="26" rx="2" fill="#404040"/>
<rect x="40.5" y="8.5" width="29.4375" height="25" rx="1.5" stroke="black" stroke-opacity="0.14902"/>
<path d="M45.7656 16V24H44.8438V16H45.7656ZM49.8916 24.125C49.3499 24.125 48.8747 23.9961 48.4658 23.7383C48.0596 23.4805 47.7419 23.1198 47.5127 22.6562C47.2861 22.1927 47.1729 21.651 47.1729 21.0312C47.1729 20.4062 47.2861 19.8607 47.5127 19.3945C47.7419 18.9284 48.0596 18.5664 48.4658 18.3086C48.8747 18.0508 49.3499 17.9219 49.8916 17.9219C50.4333 17.9219 50.9072 18.0508 51.3135 18.3086C51.7223 18.5664 52.04 18.9284 52.2666 19.3945C52.4958 19.8607 52.6104 20.4062 52.6104 21.0312C52.6104 21.651 52.4958 22.1927 52.2666 22.6562C52.04 23.1198 51.7223 23.4805 51.3135 23.7383C50.9072 23.9961 50.4333 24.125 49.8916 24.125ZM49.8916 23.2969C50.3031 23.2969 50.6416 23.1914 50.9072 22.9805C51.1729 22.7695 51.3695 22.4922 51.4971 22.1484C51.6247 21.8047 51.6885 21.4323 51.6885 21.0312C51.6885 20.6302 51.6247 20.2565 51.4971 19.9102C51.3695 19.5638 51.1729 19.2839 50.9072 19.0703C50.6416 18.8568 50.3031 18.75 49.8916 18.75C49.4801 18.75 49.1416 18.8568 48.876 19.0703C48.6104 19.2839 48.4137 19.5638 48.2861 19.9102C48.1585 20.2565 48.0947 20.6302 48.0947 21.0312C48.0947 21.4323 48.1585 21.8047 48.2861 22.1484C48.4137 22.4922 48.6104 22.7695 48.876 22.9805C49.1416 23.1914 49.4801 23.2969 49.8916 23.2969ZM56.4395 26.375C55.9941 26.375 55.6113 26.3177 55.291 26.2031C54.9707 26.0911 54.7038 25.9427 54.4902 25.7578C54.2793 25.5755 54.1113 25.3802 53.9863 25.1719L54.7207 24.6563C54.804 24.7656 54.9095 24.8906 55.0371 25.0312C55.1647 25.1745 55.3392 25.2982 55.5605 25.4023C55.7845 25.5091 56.0775 25.5625 56.4395 25.5625C56.9238 25.5625 57.3236 25.4453 57.6387 25.2109C57.9538 24.9766 58.1113 24.6094 58.1113 24.1094V22.8906H58.0332C57.9655 23 57.8691 23.1354 57.7441 23.2969C57.6217 23.4557 57.4447 23.5977 57.2129 23.7227C56.9837 23.8451 56.6738 23.9062 56.2832 23.9062C55.7988 23.9062 55.3639 23.7917 54.9785 23.5625C54.5957 23.3333 54.2923 23 54.0684 22.5625C53.847 22.125 53.7363 21.5937 53.7363 20.9687C53.7363 20.3542 53.8444 19.819 54.0605 19.3633C54.2767 18.9049 54.5775 18.5508 54.9629 18.3008C55.3483 18.0482 55.7936 17.9219 56.2988 17.9219C56.6895 17.9219 56.9993 17.987 57.2285 18.1172C57.4603 18.2448 57.6374 18.3906 57.7598 18.5547C57.8848 18.7161 57.9811 18.849 58.0488 18.9531H58.1426V18H59.0332V24.1719C59.0332 24.6875 58.916 25.1068 58.6816 25.4297C58.4499 25.7552 58.1374 25.9935 57.7441 26.1445C57.3535 26.2982 56.9186 26.375 56.4395 26.375ZM56.4082 23.0781C56.778 23.0781 57.0905 22.9935 57.3457 22.8242C57.6009 22.6549 57.7949 22.4115 57.9277 22.0938C58.0605 21.776 58.127 21.3958 58.127 20.9531C58.127 20.5208 58.0618 20.1393 57.9316 19.8086C57.8014 19.4779 57.6087 19.2187 57.3535 19.0312C57.0983 18.8437 56.7832 18.75 56.4082 18.75C56.0176 18.75 55.6921 18.849 55.4316 19.0469C55.1738 19.2448 54.9798 19.5104 54.8496 19.8438C54.722 20.1771 54.6582 20.5469 54.6582 20.9531C54.6582 21.3698 54.7233 21.7383 54.8535 22.0586C54.9863 22.3763 55.1816 22.6263 55.4395 22.8086C55.6999 22.9883 56.0228 23.0781 56.4082 23.0781ZM63.1582 24.125C62.6165 24.125 62.1413 23.9961 61.7324 23.7383C61.3262 23.4805 61.0085 23.1198 60.7793 22.6562C60.5527 22.1927 60.4395 21.651 60.4395 21.0312C60.4395 20.4062 60.5527 19.8607 60.7793 19.3945C61.0085 18.9284 61.3262 18.5664 61.7324 18.3086C62.1413 18.0508 62.6165 17.9219 63.1582 17.9219C63.6999 17.9219 64.1738 18.0508 64.5801 18.3086C64.9889 18.5664 65.3066 18.9284 65.5332 19.3945C65.7624 19.8607 65.877 20.4062 65.877 21.0312C65.877 21.651 65.7624 22.1927 65.5332 22.6562C65.3066 23.1198 64.9889 23.4805 64.5801 23.7383C64.1738 23.9961 63.6999 24.125 63.1582 24.125ZM63.1582 23.2969C63.5697 23.2969 63.9082 23.1914 64.1738 22.9805C64.4395 22.7695 64.6361 22.4922 64.7637 22.1484C64.8913 21.8047 64.9551 21.4323 64.9551 21.0312C64.9551 20.6302 64.8913 20.2565 64.7637 19.9102C64.6361 19.5638 64.4395 19.2839 64.1738 19.0703C63.9082 18.8568 63.5697 18.75 63.1582 18.75C62.7467 18.75 62.4082 18.8568 62.1426 19.0703C61.877 19.2839 61.6803 19.5638 61.5527 19.9102C61.4251 20.2565 61.3613 20.6302 61.3613 21.0312C61.3613 21.4323 61.4251 21.8047 61.5527 22.1484C61.6803 22.4922 61.877 22.7695 62.1426 22.9805C62.4082 23.1914 62.7467 23.2969 63.1582 23.2969Z" fill="#333"/>
</svg>
