<?xml version="1.0" encoding="UTF-8" standalone="no"?>
<svg
   xmlns:dc="http://purl.org/dc/elements/1.1/"
   xmlns:cc="http://creativecommons.org/ns#"
   xmlns:rdf="http://www.w3.org/1999/02/22-rdf-syntax-ns#"
   xmlns:svg="http://www.w3.org/2000/svg"
   xmlns="http://www.w3.org/2000/svg"
   xmlns:sodipodi="http://sodipodi.sourceforge.net/DTD/sodipodi-0.dtd"
   xmlns:inkscape="http://www.inkscape.org/namespaces/inkscape"
   viewBox="0 0 56 16"
   width="56"
   height="16"
   version="1.1"
   id="svg18"
   sodipodi:docname="logo.svg"
   inkscape:version="0.92.4 (5da689c313, 2019-01-14)"
   inkscape:export-filename="/media/MortCodesWeb/707846D5784699AC/Workspaces/unknown/icons/logo.svg.png"
   inkscape:export-xdpi="1689.0721"
   inkscape:export-ydpi="1689.0721">
  <metadata
     id="metadata24">
    <rdf:RDF>
      <cc:Work
         rdf:about="">
        <dc:format>image/svg+xml</dc:format>
        <dc:type
           rdf:resource="http://purl.org/dc/dcmitype/StillImage" />
      </cc:Work>
    </rdf:RDF>
  </metadata>
  <sodipodi:namedview
     pagecolor="#ffffff"
     bordercolor="#666666"
     borderopacity="1"
     objecttolerance="10"
     gridtolerance="10"
     guidetolerance="10"
     inkscape:pageopacity="0"
     inkscape:pageshadow="2"
     inkscape:window-width="1600"
     inkscape:window-height="813"
     id="namedview20"
     showgrid="false"
     inkscape:zoom="14.75"
     inkscape:cx="22.285343"
     inkscape:cy="13.260313"
     inkscape:window-x="0"
     inkscape:window-y="0"
     inkscape:window-maximized="1"
     inkscape:current-layer="svg18"
     inkscape:pagecheckerboard="0" />
  <linearGradient
     id="g0"
     x1="0%"
     y1="0%"
     x2="100%"
     y2="100%">
    <stop
       offset="0%"
       style="stop-color:#6a6a6a;stop-opacity:1"
       id="stop2" />
    <stop
       offset="100%"
       style="stop-color:#6a6a6a;stop-opacity:1"
       id="stop4" />
  </linearGradient>
  <linearGradient
     id="g1"
     x1="0%"
     y1="0%"
     x2="100%"
     y2="100%">
    <stop
       offset="0%"
       style="stop-color:#a6a6a6;stop-opacity:1"
       id="stop7" />
    <stop
       offset="100%"
       style="stop-color:#a6a6a6;stop-opacity:1"
       id="stop9" />
  </linearGradient>
  <linearGradient
     id="g2"
     x1="0%"
     y1="0%"
     x2="100%"
     y2="100%">
    <stop
       offset="0%"
       style="stop-color:#c7c7c7;stop-opacity:1"
       id="stop29" />
    <stop
       offset="100%"
       style="stop-color:#c7c7c7;stop-opacity:1"
       id="stop31" />
  </linearGradient>
  <style
     id="style12">
    .ac-color {
      fill: url(#g0);
    }
    .ac-color1 {
      fill: url(#g1);
    }
    .ac-color2 {
      fill: url(#g2);
    }
    .ac-color3 {
      fill: #e7e7e7;
      font-family: 'Readex Pro';
    }
  </style>
  <path
     d="M9 9Q9 2 3 2 2 2 2 3 2 9 9 9M7 9Q7 2 13 2 14 2 14 3 14 9 7 9M9 7Q2 7 2 13 2 14 3 14 9 14 9 7M7 7Q14 7 14 13 14 14 13 14 7 14 7 7"
     class="ac-color"
     id="path14" />
  <path
     d="M8 8Q3 5 7 1 8 0 9 1 13 5 8 8M8 8Q11 3 15 7 16 8 15 9 11 13 8 8M8 8Q13 11 9 15 8 16 7 15 3 11 8 8M8 8Q5 13 1 9 0 8 1 7 5 3 8 8"
     class="ac-color1"
     id="path16" />
  <path
     d="M8 6A1 1 0 008 10 1 1 0 008 6"
     class="ac-color2"
     id="path17" />
  <text x="18" y="12.25" class="ac-color3">
   Orchid
  </text>
</svg>
