<?xml version="1.0" encoding="UTF-8" standalone="no"?>
<svg
   viewBox="0 0 16 16"
   width="16"
   height="16"
   version="1.1"
   id="svg42"
   sodipodi:docname="store.svg"
   inkscape:version="1.1.2 (0a00cf5339, 2022-02-04)"
   xmlns:inkscape="http://www.inkscape.org/namespaces/inkscape"
   xmlns:sodipodi="http://sodipodi.sourceforge.net/DTD/sodipodi-0.dtd"
   xmlns="http://www.w3.org/2000/svg"
   xmlns:svg="http://www.w3.org/2000/svg"
   xmlns:rdf="http://www.w3.org/1999/02/22-rdf-syntax-ns#"
   xmlns:cc="http://creativecommons.org/ns#"
   xmlns:dc="http://purl.org/dc/elements/1.1/">
  <metadata
     id="metadata48">
    <rdf:RDF>
      <cc:Work
         rdf:about="">
        <dc:format>image/svg+xml</dc:format>
        <dc:type
           rdf:resource="http://purl.org/dc/dcmitype/StillImage" />
      </cc:Work>
    </rdf:RDF>
  </metadata>
  <defs
     id="defs46">
    <filter
       style="color-interpolation-filters:sRGB;"
       inkscape:label="Drop Shadow"
       id="filter868">
      <feFlood
         flood-opacity="0.25098"
         flood-color="rgb(255,255,255)"
         result="flood"
         id="feFlood858" />
      <feComposite
         in="flood"
         in2="SourceGraphic"
         operator="out"
         result="composite1"
         id="feComposite860" />
      <feGaussianBlur
         in="composite1"
         stdDeviation="0.5"
         result="blur"
         id="feGaussianBlur862" />
      <feOffset
         dx="0"
         dy="0.5"
         result="offset"
         id="feOffset864" />
      <feComposite
         in="offset"
         in2="SourceGraphic"
         operator="atop"
         result="composite2"
         id="feComposite866" />
    </filter>
    <filter
       style="color-interpolation-filters:sRGB;"
       inkscape:label="Drop Shadow"
       id="filter842">
      <feFlood
         flood-opacity="0.25098"
         flood-color="rgb(255,255,255)"
         result="flood"
         id="feFlood832" />
      <feComposite
         in="flood"
         in2="SourceGraphic"
         operator="in"
         result="composite1"
         id="feComposite834" />
      <feGaussianBlur
         in="composite1"
         stdDeviation="0.5"
         result="blur"
         id="feGaussianBlur836" />
      <feOffset
         dx="0"
         dy="0.5"
         result="offset"
         id="feOffset838" />
      <feComposite
         in="SourceGraphic"
         in2="offset"
         operator="over"
         result="fbSourceGraphic"
         id="feComposite840" />
      <feColorMatrix
         result="fbSourceGraphicAlpha"
         in="fbSourceGraphic"
         values="0 0 0 -1 0 0 0 0 -1 0 0 0 0 -1 0 0 0 0 1 0"
         id="feColorMatrix856" />
      <feFlood
         id="feFlood859"
         flood-opacity="0.25098"
         flood-color="rgb(0,0,0)"
         result="flood"
         in="fbSourceGraphic" />
      <feComposite
         in2="fbSourceGraphic"
         id="feComposite861"
         in="flood"
         operator="out"
         result="composite1" />
      <feGaussianBlur
         id="feGaussianBlur863"
         in="composite1"
         stdDeviation="0.5"
         result="blur" />
      <feOffset
         id="feOffset865"
         dx="0"
         dy="-0.5"
         result="offset" />
      <feComposite
         in2="fbSourceGraphic"
         id="feComposite867"
         in="offset"
         operator="atop"
         result="composite2" />
    </filter>
    <filter
       style="color-interpolation-filters:sRGB;"
       inkscape:label="Drop Shadow"
       id="filter854">
      <feFlood
         flood-opacity="0.25098"
         flood-color="rgb(0,0,0)"
         result="flood"
         id="feFlood844" />
      <feComposite
         in="flood"
         in2="SourceGraphic"
         operator="in"
         result="composite1"
         id="feComposite846" />
      <feGaussianBlur
         in="composite1"
         stdDeviation="0.5"
         result="blur"
         id="feGaussianBlur848" />
      <feOffset
         dx="0"
         dy="0.5"
         result="offset"
         id="feOffset850" />
      <feComposite
         in="SourceGraphic"
         in2="offset"
         operator="over"
         result="composite2"
         id="feComposite852" />
    </filter>
    <filter
       style="color-interpolation-filters:sRGB;"
       inkscape:label="Drop Shadow"
       id="filter53"
       x="-0.15"
       y="-0.3"
       width="1.3"
       height="1.725">
      <feFlood
         flood-opacity="0.25098"
         flood-color="rgb(0,0,0)"
         result="flood"
         id="feFlood43" />
      <feComposite
         in="flood"
         in2="SourceGraphic"
         operator="in"
         result="composite1"
         id="feComposite45" />
      <feGaussianBlur
         in="composite1"
         stdDeviation="0.5"
         result="blur"
         id="feGaussianBlur47" />
      <feOffset
         dx="0"
         dy="0.5"
         result="offset"
         id="feOffset49" />
      <feComposite
         in="SourceGraphic"
         in2="offset"
         operator="over"
         result="composite2"
         id="feComposite51" />
    </filter>
    <filter
       style="color-interpolation-filters:sRGB;"
       inkscape:label="Drop Shadow"
       id="filter83"
       x="-0.1"
       y="-0.4"
       width="1.2"
       height="1.9666667">
      <feFlood
         flood-opacity="0.25098"
         flood-color="rgb(0,0,0)"
         result="flood"
         id="feFlood73" />
      <feComposite
         in="flood"
         in2="SourceGraphic"
         operator="out"
         result="composite1"
         id="feComposite75" />
      <feGaussianBlur
         in="composite1"
         stdDeviation="0.5"
         result="blur"
         id="feGaussianBlur77" />
      <feOffset
         dx="0"
         dy="0.5"
         result="offset"
         id="feOffset79" />
      <feComposite
         in="offset"
         in2="SourceGraphic"
         operator="atop"
         result="composite2"
         id="feComposite81" />
    </filter>
  </defs>
  <sodipodi:namedview
     pagecolor="#ffffff"
     bordercolor="#666666"
     borderopacity="1"
     objecttolerance="10"
     gridtolerance="10"
     guidetolerance="10"
     inkscape:pageopacity="0"
     inkscape:pageshadow="2"
     inkscape:window-width="846"
     inkscape:window-height="480"
     id="namedview44"
     showgrid="false"
     inkscape:zoom="14.75"
     inkscape:cx="9.0508475"
     inkscape:cy="8"
     inkscape:window-x="0"
     inkscape:window-y="0"
     inkscape:window-maximized="0"
     inkscape:current-layer="svg42"
     inkscape:pagecheckerboard="0" />
  <linearGradient
     id="g0"
     x1="0%"
     y1="0%"
     x2="100%"
     y2="100%">
    <stop
       offset="0%"
       style="stop-color:#60e0a0;stop-opacity:1"
       id="stop2" />
    <stop
       offset="100%"
       style="stop-color:#208040;stop-opacity:1"
       id="stop4" />
  </linearGradient>
  <linearGradient
     id="g1"
     x1="0%"
     y1="0%"
     x2="100%"
     y2="100%">
    <stop
       offset="0%"
       style="stop-color:#108030;stop-opacity:1"
       id="stop2" />
    <stop
       offset="100%"
       style="stop-color:#60c0a0;stop-opacity:1"
       id="stop4" />
  </linearGradient>
  <style
     id="style32">
    .ac-color {
      fill: url(#g0);
    }
    .ac-color1 {
      fill: url(#g1);
    }
  </style>
  <path
     d="M2 4 3 4Q4 4 4 3L4 2Q4 0 6 0 8 0 8 2L8 3Q8 4 9 4L10 4Q12 4 12 6L12 7Q12 8 13 8L14 8Q16 8 16 10 16 12 14 12L13 12Q12 12 12 13L12 14Q12 16 10 16L2 16Q0 16 0 14L0 13Q0 11 2 11L3 11Q4 11 4 10 4 9 3 9L2 9Q0 9 0 7L0 6Q0 4 2 4"
     class="ac-color"
     id="path34" />
  <path
     d="M1 6 1 7Q1 8 2 8L3 8Q5 8 5 10 5 12 3 12L2 12Q1 12 1 13L1 14Q1 15 2 15L10 15Q11 15 11 14L11 13Q11 11 13 11L14 11Q15 11 15 10 15 9 14 9L13 9Q11 9 11 7L11 6Q11 5 10 5L9 5Q7 5 7 3L7 2Q7 1 6 1 5 1 5 2L5 3Q5 5 3 5L2 5Q1 5 1 6"
     class="ac-color1"
     id="path34" />
</svg>
